<?xml version="1.0" standalone="no"?>
<!DOCTYPE svg PUBLIC "-//W3C//DTD SVG 20010904//EN"
 "http://www.w3.org/TR/2001/REC-SVG-20010904/DTD/svg10.dtd">
<svg version="1.0" xmlns="http://www.w3.org/2000/svg"
 width="717.000000pt" height="717.000000pt" viewBox="0 0 717.000000 717.000000"
 preserveAspectRatio="xMidYMid meet">

<g transform="translate(0.000000,717.000000) scale(0.100000,-0.100000)"
fill="#9a5d14" stroke="#9a5d14">
<path d="M1931 6965 c-132 -62 -303 -302 -390 -548 -149 -422 -87 -908 165
-1294 31 -49 105 -151 164 -228 58 -77 110 -145 113 -152 4 -6 -22 -78 -57
-160 -35 -81 -62 -151 -60 -154 2 -4 40 3 84 15 l81 22 106 214 c58 118 109
216 114 218 12 5 3 25 -67 148 -131 233 -223 436 -272 600 -27 89 -72 295 -72
329 0 14 -4 25 -9 25 -15 0 -23 -286 -11 -390 17 -153 76 -367 111 -404 14
-15 11 -36 -6 -36 -18 0 -62 64 -114 168 -63 125 -98 224 -138 392 -3 14 -7
117 -7 230 -1 166 2 220 18 285 63 273 223 535 327 535 43 0 52 -23 66 -168
47 -516 147 -900 325 -1256 72 -145 167 -306 184 -313 31 -12 106 36 355 230
172 133 454 297 510 297 40 0 69 -16 69 -38 0 -10 -12 -38 -28 -63 -39 -62
-61 -116 -72 -178 -6 -29 -10 -55 -10 -56 0 -1 46 22 103 51 164 84 240 106
389 112 107 4 131 2 153 -12 33 -22 32 -48 -4 -88 -30 -35 -71 -106 -71 -123
0 -6 35 -17 78 -24 83 -14 270 -60 339 -84 23 -8 46 -11 51 -8 35 22 200 336
266 503 114 290 193 661 232 1078 9 97 24 135 59 144 107 27 291 -283 339
-572 42 -247 26 -461 -50 -690 -39 -117 -160 -345 -189 -356 -26 -9 -26 12 -2
61 30 59 61 155 82 248 26 115 33 536 8 512 -2 -3 -15 -57 -28 -120 -59 -283
-146 -507 -310 -797 -23 -41 -52 -92 -63 -113 l-20 -38 48 -88 c26 -48 80
-151 118 -227 l71 -140 73 -19 c40 -10 79 -20 86 -23 21 -8 13 18 -54 166 -42
93 -63 152 -60 166 3 12 67 102 141 201 75 99 138 190 141 203 4 12 9 22 13
22 11 0 96 175 131 269 37 102 77 297 83 411 22 406 -145 844 -409 1071 -34
29 -84 50 -134 56 -130 15 -229 -109 -244 -308 -20 -272 -119 -683 -238 -984
-55 -140 -185 -402 -202 -408 -8 -3 -30 -2 -49 4 -34 9 -35 10 -50 96 -29 157
-48 167 -334 167 -111 0 -200 3 -197 7 2 4 -1 9 -7 11 -7 2 1 19 20 40 17 20
31 44 31 55 0 24 -29 65 -41 58 -5 -4 -9 -2 -9 3 0 17 -61 32 -129 32 -122 0
-269 -49 -504 -166 -129 -65 -240 -142 -308 -216 -45 -49 -71 -70 -81 -65 -34
12 -186 343 -261 567 -86 254 -149 562 -172 830 -8 87 -41 169 -88 219 -63 66
-136 78 -226 36z"/>
<path d="M2305 4384 c-184 -28 -359 -78 -584 -166 -182 -72 -214 -95 -213
-158 2 -96 10 -117 61 -150 74 -47 78 -54 85 -160 15 -204 68 -388 153 -534
26 -44 47 -84 46 -87 -11 -32 -53 -657 -48 -704 13 -118 36 -200 80 -288 l45
-88 -15 -97 c-14 -99 -85 -608 -175 -1266 -43 -313 -48 -372 -37 -383 11 -11
142 -52 169 -53 3 0 9 21 12 48 6 44 44 329 137 1031 23 168 45 315 50 328 l9
25 38 -23 c20 -13 46 -31 57 -41 10 -10 25 -16 33 -13 7 2 11 1 8 -4 -8 -12
63 -53 76 -45 6 4 8 3 5 -3 -7 -11 69 -50 78 -41 16 16 -120 322 -138 311 -6
-3 -7 -1 -3 5 6 10 -55 119 -74 132 -4 3 -28 48 -53 100 -83 170 -114 353
-103 605 8 170 20 273 35 288 7 7 29 2 68 -16 100 -44 164 -58 288 -64 198 -9
326 22 465 112 230 150 357 342 396 598 14 93 14 139 -1 245 -3 25 1 35 18 46
59 38 289 49 416 20 89 -20 102 -31 90 -81 -14 -60 -10 -197 7 -281 53 -259
234 -485 478 -597 170 -78 390 -86 590 -21 60 20 114 36 120 36 30 -1 36 -22
52 -186 34 -358 -12 -577 -175 -829 -107 -164 -206 -384 -183 -407 13 -13 89
24 181 91 83 59 96 67 87 52 -4 -6 -1 -11 7 -11 17 0 16 5 61 -350 20 -151 45
-347 56 -435 12 -88 34 -260 50 -382 16 -122 31 -227 34 -232 7 -11 179 32
183 46 2 6 -19 181 -47 389 -28 209 -58 431 -66 494 -8 63 -17 122 -19 130 -2
8 -7 40 -10 70 -3 30 -24 190 -46 354 l-40 299 45 91 c65 129 80 217 73 415
-3 86 -8 185 -11 221 -4 36 -11 119 -16 185 -6 66 -13 132 -16 146 -4 20 8 49
45 115 96 167 144 343 152 554 1 30 4 61 7 68 2 7 31 31 63 53 32 22 63 48 69
59 5 10 11 51 11 90 1 54 -3 75 -16 90 -9 10 -72 42 -139 70 -433 183 -765
229 -1081 149 -158 -40 -329 -140 -397 -233 -39 -53 -49 -59 -86 -45 -110 43
-367 52 -516 19 -50 -11 -93 -20 -97 -20 -4 0 -23 22 -42 49 -73 101 -227 194
-395 238 -80 20 -126 25 -257 28 -88 2 -173 1 -190 -1z m385 -184 c152 -44
303 -147 351 -241 50 -98 65 -280 33 -408 -20 -78 -74 -198 -110 -240 -14 -17
-22 -36 -18 -42 4 -7 3 -9 -3 -6 -5 3 -32 -17 -59 -44 -120 -124 -289 -199
-443 -199 -111 1 -263 53 -343 118 -132 106 -233 320 -245 519 -10 160 30 284
125 385 84 90 178 141 318 172 98 22 293 15 394 -14z m2082 1 c110 -29 183
-67 255 -134 70 -66 102 -115 132 -205 39 -116 22 -321 -38 -458 -11 -24 -17
-44 -13 -44 4 0 2 -4 -4 -8 -6 -4 -21 -25 -32 -48 -11 -22 -37 -60 -56 -83
-20 -24 -33 -48 -29 -53 3 -7 1 -8 -5 -4 -7 4 -24 -4 -39 -19 -82 -75 -264
-132 -392 -122 -212 16 -434 172 -538 379 -89 177 -95 404 -16 551 58 106 210
204 388 250 115 30 271 29 387 -2z"/>
<path d="M2385 3854 c-65 -16 -116 -57 -97 -76 8 -8 23 -6 53 6 31 13 44 14
49 5 9 -14 1 -49 -11 -49 -10 0 -29 -65 -29 -100 0 -139 132 -230 271 -188 22
6 39 15 39 20 0 4 6 8 13 8 8 0 23 10 34 23 63 68 74 174 28 253 -15 26 -36
49 -46 51 -11 3 -19 9 -19 13 0 8 -40 26 -80 37 -51 13 -147 12 -205 -3z"/>
<path d="M4423 3844 c-24 -9 -43 -20 -43 -25 0 -6 -4 -8 -8 -5 -13 8 -70 -58
-87 -98 -8 -19 -15 -53 -15 -74 0 -44 18 -102 31 -102 5 0 8 -3 7 -7 -4 -12
48 -61 85 -80 37 -20 140 -23 174 -5 102 55 142 185 88 286 -13 25 -20 46 -14
46 6 0 8 3 6 8 -3 4 6 8 19 8 13 1 24 -2 24 -8 0 -5 4 -7 9 -4 5 4 11 2 13 -4
2 -5 9 -6 17 -1 11 7 11 13 -3 32 -9 13 -16 20 -16 16 0 -4 -12 0 -26 9 -36
24 -204 29 -261 8z"/>
<path d="M3119 2940 c-9 -5 -16 -26 -17 -51 -5 -84 82 -209 141 -200 4 0 7 -4
7 -10 0 -5 4 -8 9 -4 5 3 12 1 15 -4 3 -5 23 -12 43 -15 121 -22 128 -36 127
-246 0 -119 -4 -152 -19 -183 -24 -52 -79 -86 -170 -107 -67 -16 -82 -16 -142
-4 -85 18 -152 55 -208 115 -24 26 -47 44 -50 40 -4 -3 -5 -1 -4 4 5 16 -44
94 -61 97 -29 6 -51 -30 -49 -80 2 -46 35 -132 51 -132 4 0 8 -6 8 -12 1 -29
162 -164 182 -152 4 3 8 0 8 -5 0 -6 3 -10 8 -9 4 1 20 -4 36 -11 16 -6 62
-16 102 -22 75 -12 172 -2 232 23 15 6 30 11 35 10 4 -1 7 3 7 10 0 6 3 8 6 5
4 -4 29 10 56 29 45 34 50 35 67 20 10 -9 23 -16 30 -16 6 0 14 -7 17 -15 4
-8 10 -12 15 -9 5 3 9 1 9 -5 0 -22 114 -53 200 -54 105 0 139 3 146 14 3 5
10 7 15 3 14 -8 144 58 191 96 36 29 96 110 101 133 1 6 7 17 14 24 21 23 26
91 9 118 -9 14 -13 25 -9 25 5 0 2 4 -6 9 -17 11 -51 2 -51 -13 0 -18 -97
-141 -132 -168 -35 -27 -94 -59 -118 -66 -50 -13 -163 -13 -212 2 -29 8 -55
14 -58 13 -11 -4 -73 60 -90 93 -27 55 -31 82 -31 238 -1 165 -1 165 79 177
26 4 52 11 57 15 6 5 13 8 18 8 25 1 67 15 67 23 0 6 5 7 10 4 6 -3 10 -1 10
4 0 6 7 11 14 11 19 0 60 54 86 113 18 41 20 53 10 82 -6 20 -16 33 -21 30 -5
-4 -9 -1 -9 4 0 14 -110 14 -170 0 -25 -5 -82 -28 -127 -49 -79 -38 -118 -48
-125 -32 -6 14 -106 62 -159 75 -63 17 -177 21 -200 7z"/>
<path d="M3956 1773 c-4 -5 -11 -8 -14 -8 -21 -2 -82 -30 -82 -39 0 -5 -3 -7
-6 -3 -3 3 -29 -3 -58 -15 -134 -54 -194 -67 -299 -63 -56 1 -112 5 -124 9
-13 3 -31 8 -40 10 -10 3 -46 16 -80 30 -35 13 -63 21 -63 18 0 -4 -4 -2 -8 3
-6 9 -96 55 -108 55 -2 0 -9 -11 -14 -25 -10 -26 5 -85 22 -85 5 0 6 -4 3 -10
-3 -5 -1 -10 4 -10 6 0 11 -7 11 -15 0 -9 7 -18 15 -21 8 -4 15 -12 15 -19 0
-34 146 -128 218 -141 122 -20 164 -24 212 -19 73 8 160 27 160 34 0 4 10 8
22 8 13 1 24 7 26 13 2 5 8 8 13 5 12 -8 162 142 154 155 -3 5 -1 10 6 10 7 0
10 3 6 6 -3 4 0 13 8 21 18 18 30 82 18 94 -5 5 -13 6 -17 2z"/>
</g>
</svg>
